<svg width="85" height="25" viewBox="0 0 85 25" fill="none" xmlns="http://www.w3.org/2000/svg">
<path d="M5.996 15V6.6H9.632C10.384 6.6 11.032 6.724 11.576 6.972C12.12 7.212 12.54 7.56 12.836 8.016C13.132 8.472 13.28 9.016 13.28 9.648C13.28 10.272 13.132 10.812 12.836 11.268C12.54 11.724 12.12 12.076 11.576 12.324C11.032 12.564 10.384 12.684 9.632 12.684H7.076L7.94 11.808V15H5.996ZM7.94 12.024L7.076 11.1H9.524C10.124 11.1 10.572 10.972 10.868 10.716C11.164 10.46 11.312 10.104 11.312 9.648C11.312 9.184 11.164 8.824 10.868 8.568C10.572 8.312 10.124 8.184 9.524 8.184H7.076L7.94 7.26V12.024ZM13.142 15L16.886 6.6H18.806L22.562 15H20.522L17.45 7.584H18.218L15.134 15H13.142ZM15.014 13.2L15.53 11.724H19.85L20.378 13.2H15.014ZM25.4965 15L21.8725 6.6H23.9725L27.1405 14.04H25.9045L29.1205 6.6H31.0525L27.4165 15H25.4965ZM30.3686 15L34.1126 6.6H36.0326L39.7886 15H37.7486L34.6766 7.584H35.4446L32.3606 15H30.3686ZM32.2406 13.2L32.7566 11.724H37.0766L37.6046 13.2H32.2406ZM40.6601 15V6.6H44.2961C45.0481 6.6 45.6961 6.724 46.2401 6.972C46.7841 7.212 47.2041 7.56 47.5001 8.016C47.7961 8.472 47.9441 9.016 47.9441 9.648C47.9441 10.272 47.7961 10.812 47.5001 11.268C47.2041 11.716 46.7841 12.06 46.2401 12.3C45.6961 12.54 45.0481 12.66 44.2961 12.66H41.7401L42.6041 11.808V15H40.6601ZM46.0001 15L43.9001 11.952H45.9761L48.1001 15H46.0001ZM42.6041 12.024L41.7401 11.112H44.1881C44.7881 11.112 45.2361 10.984 45.5321 10.728C45.8281 10.464 45.9761 10.104 45.9761 9.648C45.9761 9.184 45.8281 8.824 45.5321 8.568C45.2361 8.312 44.7881 8.184 44.1881 8.184H41.7401L42.6041 7.26V12.024ZM49.4843 15V6.6H51.4283V15H49.4843ZM55.1618 15V8.184H52.4738V6.6H59.7938V8.184H57.1058V15H55.1618ZM66.2542 15L63.5062 6.6H65.5222L67.9102 14.04H66.9022L69.3982 6.6H71.1982L73.5982 14.04H72.6262L75.0742 6.6H76.9342L74.1862 15H72.0982L69.9742 8.472H70.5262L68.3422 15H66.2542ZM78.3142 15.096C77.9942 15.096 77.7182 14.988 77.4862 14.772C77.2622 14.548 77.1502 14.264 77.1502 13.92C77.1502 13.576 77.2622 13.3 77.4862 13.092C77.7182 12.876 77.9942 12.768 78.3142 12.768C78.6422 12.768 78.9182 12.876 79.1422 13.092C79.3662 13.3 79.4782 13.576 79.4782 13.92C79.4782 14.264 79.3662 14.548 79.1422 14.772C78.9182 14.988 78.6422 15.096 78.3142 15.096Z" fill="black"/>
<rect x="6" y="18" width="74" height="2" fill="black"/>
</svg>
