<svg width="25" height="25" viewBox="0 0 25 25" fill="none" xmlns="http://www.w3.org/2000/svg">
<path d="M1.996 15V6.6H5.632C6.384 6.6 7.032 6.724 7.576 6.972C8.12 7.212 8.54 7.56 8.836 8.016C9.132 8.472 9.28 9.016 9.28 9.648C9.28 10.272 9.132 10.812 8.836 11.268C8.54 11.724 8.12 12.076 7.576 12.324C7.032 12.564 6.384 12.684 5.632 12.684H3.076L3.94 11.808V15H1.996ZM3.94 12.024L3.076 11.1H5.524C6.124 11.1 6.572 10.972 6.868 10.716C7.164 10.46 7.312 10.104 7.312 9.648C7.312 9.184 7.164 8.824 6.868 8.568C6.572 8.312 6.124 8.184 5.524 8.184H3.076L3.94 7.26V12.024ZM12.5901 15L9.84213 6.6H11.8581L14.2461 14.04H13.2381L15.7341 6.6H17.5341L19.9341 14.04H18.9621L21.4101 6.6H23.2701L20.5221 15H18.4341L16.3101 8.472H16.8621L14.6781 15H12.5901Z" fill="white"/>
<rect x="2" y="18" width="21" height="2" fill="#0CB8AB"/>
</svg>
